<svg width="32" height="32" viewBox="0 0 32 32" fill="none" xmlns="http://www.w3.org/2000/svg">
<g id="Social " clipPath="url(#clip0_1983_1242)">
<path id="Exclude" fill-rule="evenodd" clip-rule="evenodd" d="M16 -0.00927734C7.16344 -0.00927734 0 7.15417 0 15.9907C0 24.8273 7.16344 31.9907 16 31.9907C24.8366 31.9907 32 24.8273 32 15.9907C32 7.15417 24.8366 -0.00927734 16 -0.00927734ZM7.62169 24.6572H11.216V13.0732H7.62169V24.6572ZM7.33319 9.40934C7.33319 10.5611 8.26489 11.4948 9.41887 11.4948C10.5681 11.4948 11.4998 10.5564 11.4998 9.40934C11.4998 8.25758 10.5681 7.32384 9.41887 7.32384C8.26489 7.32384 7.33319 8.25758 7.33319 9.40934ZM21.0769 24.6572H24.6665V18.3012C24.6665 15.1824 23.9949 12.7841 20.358 12.7841C18.6129 12.7841 17.44 13.7462 16.9623 14.6563H16.915V13.0732H13.472V24.6572H17.0569V18.9315C17.0569 17.4196 17.3406 15.955 19.2088 15.955C21.0532 15.955 21.0769 17.685 21.0769 19.0263V24.6572Z" fill="#2C2B2B"/>
</g>
<defs>
<clipPath id="clip0_1983_1242">
<rect width="32" height="32" fill="white"/>
</clipPath>
</defs>
</svg>
