<svg width="32" height="32" viewBox="0 0 32 32" fill="none" xmlns="http://www.w3.org/2000/svg">
<g id="Social ">
<path id="Exclude" fill-rule="evenodd" clip-rule="evenodd" d="M16 32C24.8366 32 32 24.8366 32 16C32 7.16344 24.8366 0 16 0C7.16344 0 0 7.16344 0 16C0 24.8366 7.16344 32 16 32ZM16.0063 7.25454C18.8579 7.25454 19.1956 7.26704 20.3171 7.31705C21.3594 7.3629 21.9222 7.53793 22.2974 7.68379C22.7936 7.8755 23.1521 8.10888 23.5232 8.47978C23.8984 8.85485 24.1277 9.20909 24.3195 9.70502C24.4654 10.0801 24.6405 10.6469 24.6863 11.6846C24.7364 12.8098 24.7489 13.1474 24.7489 15.9937C24.7489 18.8443 24.7364 19.1819 24.6863 20.3029C24.6405 21.3448 24.4654 21.9074 24.3195 22.2825C24.1277 22.7784 23.8942 23.1368 23.5232 23.5077C23.1479 23.8828 22.7936 24.112 22.2974 24.3037C21.9222 24.4496 21.3552 24.6246 20.3171 24.6704C19.1915 24.7205 18.8538 24.733 16.0063 24.733C13.1546 24.733 12.8169 24.7205 11.6954 24.6704C10.6531 24.6246 10.0903 24.4496 9.71507 24.3037C9.21894 24.112 8.8604 23.8786 8.48935 23.5077C8.11413 23.1326 7.88483 22.7784 7.69305 22.2825C7.54713 21.9074 7.37203 21.3406 7.32617 20.3029C7.27614 19.1777 7.26363 18.8401 7.26363 15.9937C7.26363 13.1432 7.27614 12.8056 7.32617 11.6846C7.37203 10.6427 7.54713 10.0801 7.69305 9.70502C7.88483 9.20909 8.1183 8.85069 8.48935 8.47978C8.86457 8.10471 9.21894 7.8755 9.71507 7.68379C10.0903 7.53793 10.6573 7.3629 11.6954 7.31705C12.8169 7.26704 13.1546 7.25454 16.0063 7.25454ZM16.0063 5.33333C13.1087 5.33333 12.746 5.34584 11.6078 5.39585C10.4738 5.44586 9.69422 5.62922 9.01883 5.89178C8.31425 6.16683 7.71806 6.5294 7.12605 7.12535C6.52987 7.71713 6.16716 8.31308 5.89199 9.01322C5.62934 9.69252 5.4459 10.4677 5.39587 11.6012C5.34584 12.7431 5.33333 13.1057 5.33333 16.0021C5.33333 18.8985 5.34584 19.2611 5.39587 20.3988C5.4459 21.5323 5.62934 22.3116 5.89199 22.9868C6.16716 23.6911 6.52987 24.287 7.12605 24.8788C7.71806 25.4706 8.31425 25.8373 9.01466 26.1082C9.69422 26.3708 10.4697 26.5541 11.6037 26.6042C12.7418 26.6542 13.1046 26.6667 16.0021 26.6667C18.8996 26.6667 19.2623 26.6542 20.4005 26.6042C21.5345 26.5541 22.3141 26.3708 22.9895 26.1082C23.6899 25.8373 24.2861 25.4706 24.8781 24.8788C25.4701 24.287 25.837 23.6911 26.108 22.991C26.3707 22.3117 26.5541 21.5365 26.6041 20.4029C26.6542 19.2652 26.6667 18.9027 26.6667 16.0063C26.6667 13.1099 26.6542 12.7473 26.6041 11.6096C26.5541 10.476 26.3707 9.69669 26.108 9.02155C25.8454 8.31308 25.4826 7.71713 24.8865 7.12535C24.2944 6.53357 23.6983 6.16683 22.9979 5.89594C22.3183 5.63339 21.5428 5.45002 20.4088 5.40001C19.2665 5.34584 18.9038 5.33333 16.0063 5.33333ZM16 10.1818C12.7878 10.1818 10.1818 12.7878 10.1818 16C10.1818 19.2122 12.7878 21.8182 16 21.8182C19.2122 21.8182 21.8182 19.2122 21.8182 16C21.8182 12.7878 19.2122 10.1818 16 10.1818ZM16 19.7741C13.9161 19.7741 12.2259 18.0839 12.2259 16C12.2259 13.9161 13.9161 12.2259 16 12.2259C18.0839 12.2259 19.7741 13.9161 19.7741 16C19.7741 18.0839 18.0839 19.7741 16 19.7741ZM21.8182 11.1515C22.352 11.1515 22.7879 10.7188 22.7879 10.1818C22.7879 9.64801 22.352 9.21212 21.8182 9.21212C21.2844 9.21212 20.8485 9.64485 20.8485 10.1818C20.8485 10.7156 21.2812 11.1515 21.8182 11.1515Z" fill="#2C2B2B"/>
</g>
</svg>
